<svg xmlns="http://www.w3.org/2000/svg" width="24" height="24" viewBox="0 0 24 24" fill="none" style="color:#262626;"><path fill-rule="evenodd" d="M12.975 11.026a.74.74 0 0 0 .53.22.75.75 0 0 0 .531-.219l8.465-8.467v4.187a.75.75 0 0 0 .75.75.75.75 0 0 0 .75-.75V.75a.73.73 0 0 0-.047-.26l-.01-.026a.75.75 0 0 0-.4-.404l-.032-.012C23.426.016 23.339 0 23.25 0h-5.997a.75.75 0 0 0-.75.75.75.75 0 0 0 .75.75h4.187l-8.465 8.467a.74.74 0 0 0-.22.53.74.74 0 0 0 .22.53zm-.992 12.146c.852.542 1.828.829 2.825.829 1.393 0 2.71-.549 3.704-1.545l.628-.629c.425-.425.66-.99.66-1.59a2.24 2.24 0 0 0-.667-1.598l-2.644-2.643c-.424-.424-.989-.658-1.59-.658s-1.166.233-1.591.658c-.141.141-.329.219-.53.219s-.389-.078-.53-.219l-4.24-4.241a.75.75 0 0 1 0-1.06 2.23 2.23 0 0 0 .659-1.59 2.23 2.23 0 0 0-.658-1.591l-2.651-2.65c-.424-.424-.988-.658-1.59-.658a2.23 2.23 0 0 0-1.589.657l-.63.629C-.204 7.242-.501 9.924.821 12.001a.97.97 0 0 0 .029.047c2.97 4.396 6.706 8.133 11.094 11.098l.038.026zM3.239 5.921c.141-.141.329-.219.53-.219a.74.74 0 0 1 .53.22L6.95 8.571a.75.75 0 0 1 .219.531c0 .2-.078.388-.22.53-.877.878-.877 2.304 0 3.181l4.24 4.241c.424.424.989.658 1.589.658s1.166-.233 1.591-.658c.141-.141.329-.219.53-.219s.389.077.531.219l2.657 2.655c.139.141.215.328.215.526s-.078.389-.22.531l-.629.629c-.715.714-1.656 1.108-2.652 1.108-.706 0-1.397-.202-1.983-.575-.002-.001-.021-.015-.023-.016A39.65 39.65 0 0 1 2.098 11.216c-.951-1.494-.742-3.413.511-4.665l.631-.63z" fill="currentColor"></path></svg>